<?xml version="1.0" encoding="utf-8"?>
<!-- Generator: Adobe Illustrator 22.0.1, SVG Export Plug-In . SVG Version: 6.00 Build 0)  -->
<!DOCTYPE svg PUBLIC "-//W3C//DTD SVG 1.1//EN" "http://www.w3.org/Graphics/SVG/1.1/DTD/svg11.dtd">
<svg version="1.1" id="Layer_1" xmlns="http://www.w3.org/2000/svg" xmlns:xlink="http://www.w3.org/1999/xlink" x="0px" y="0px"
	 viewBox="0 0 72 72" enable-background="new 0 0 72 72" xml:space="preserve">
<g>
	<g>
		<g>
			<path fill="#414141" d="M51.4,39.8c2,0,4,0.7,5.5,2c0.2,0.2,0.4,0.2,0.6,0l1.6-1.6c0.2-0.2,0.2-0.5,0-0.6
				c-2.3-2.2-5.5-3.2-8.7-2.9c-5.1,0.5-9.2,4.6-9.8,9.7c-0.8,6.9,4.8,12.8,11.7,12.4c2.4-0.1,4.7-1.1,6.6-2.7l0,0
				c0.2-0.2,0.4-0.5,0.4-0.8l0-8c0-0.2-0.2-0.4-0.4-0.4h-7.5c-0.2,0-0.4,0.2-0.4,0.4v2.2c0,0.2,0.2,0.4,0.4,0.4h4.4
				c0.2,0,0.4,0.2,0.4,0.4l0,3.3c0,0.4-0.2,0.7-0.5,0.9c-1.2,0.7-2.6,1.1-4,1.1c-4.5,0-8.2-3.8-8-8.4C43.8,43.2,47.2,39.9,51.4,39.8
				z"/>
		</g>
	</g>
	<g>
		<path fill="#414141" d="M60.3,16.8l-2.1-0.6c-0.2-0.1-0.5,0.1-0.5,0.3c-2.4,7.2-12.5,9.9-19.9,11.9l-1.2,0.3
			c-0.2,0-0.3-0.1-0.3-0.3c0.6-2.3,2.8-11,3.4-13.1c0.1-0.2-0.1-0.5-0.3-0.5l-2.1-0.7c-0.2-0.1-0.5,0.1-0.6,0.3c0,0.1,0,0.1-0.1,0.2
			c0,0.1-0.2,0.2-0.3,0.1c-0.4-0.6-1-1.1-1.6-1.5c-4.1-2.9-10.6-0.7-14.5,4.9c-3.9,5.6-3.7,12.4,0.4,15.3c0.3,0.2,0.8,0.5,1.3,0.7
			c0.2,0.1,0.2,0.3,0,0.4c-2.6,1.6-4.8,3.5-6.7,5.7c-2.4,2.8-4.8,7.7-4.3,12.1c0.3,2.4,1.4,4.5,3.1,5.7c1.4,1.1,3.1,1.5,4.7,1.5
			c2.7,0,5.5-1.2,7.6-2.9C32,52.1,32.8,47,33.6,42c0.1-0.4,1.7-9.1,1.7-9.1c0.1-0.3,0.3-0.6,0.7-0.7c0.8-0.2,1.7-0.5,2.6-0.7
			c8.1-2.2,19.2-5.1,22.1-14C60.7,17.1,60.5,16.9,60.3,16.8z M30.5,41.5c-0.8,4.8-1.4,9-6,12.7c-2.4,1.9-6.1,3.1-8.5,1.3
			c-1-0.8-1.7-2.1-1.9-3.6c-0.3-2.9,1.1-7,3.5-9.7c2.2-2.5,4.9-4.6,8.1-6.3c1.9-1,3.8-1.7,5.9-2.4c0.2-0.1,0.3,0.1,0.3,0.3
			C31.5,35.9,30.6,41,30.5,41.5z M32.8,29.3c-0.1,0.3-0.3,0.6-0.6,0.7c-0.9,0.3-2.6,0.8-2.6,0.8c-4.3,1.4-6.4,0.4-7.1-0.1
			c-2.6-1.9-2.5-6.9,0.4-10.9c2.9-4.1,7.5-6,10.2-4.1c1.6,1.1,2.2,3.5,1.7,6.2C34,24.5,33.3,27.3,32.8,29.3z"/>
	</g>
</g>
</svg>
